<?xml version="1.0" encoding="utf-8"?>
<!-- Generator: Adobe Illustrator 24.0.2, SVG Export Plug-In . SVG Version: 6.00 Build 0)  -->
<svg version="1.1" id="Layer_1" xmlns="http://www.w3.org/2000/svg" xmlns:xlink="http://www.w3.org/1999/xlink" x="0px" y="0px"
	 viewBox="0 0 512 512" style="enable-background:new 0 0 512 512;" xml:space="preserve">
<style type="text/css">
	.st0{fill:#0F1225;}
	.st1{fill:#F39A6F;}
	.st2{fill:#FDE0CE;}
	.st3{fill:none;stroke:#FDE0CE;stroke-width:10;stroke-linecap:round;stroke-miterlimit:10;}
</style>
<g>
	<path class="st0" d="M378.984,161.2395c-2.1027,0-4.1866,0.073-6.253,0.1919v-52.8819c0-26.1123-81.0969-47.2963-181.1381-47.2963
		c-100.0226,0-181.1373,21.184-181.1373,47.2963v324.5334c0,32.9879,81.0969,59.7208,181.1373,59.7208
		c100.0412,0,181.1381-26.7329,181.1381-59.7208v-18.5598c2.0663,0.1002,4.1503,0.192,6.253,0.192
		c69.9979,0,126.7379-56.7494,126.7379-126.7379C505.7219,217.971,448.9819,161.2395,378.984,161.2395z M372.7311,382.8337V186.3453
		c48.5114,6.4646,85.9792,47.945,85.9792,98.2493C458.7103,334.8802,421.2424,376.3794,372.7311,382.8337z"/>
	<path class="st0" d="M372.7311,108.5495c0,26.1207-81.0969,47.3047-181.1381,47.3047
		c-100.0226,0-181.1373-21.1839-181.1373-47.3047c0-26.1123,81.1147-47.2963,181.1373-47.2963
		C291.6342,61.2532,372.7311,82.4372,372.7311,108.5495z"/>
	<ellipse class="st1" cx="191.5929" cy="108.5496" rx="145.6271" ry="38.0342"/>
</g>
<path class="st2" d="M68.6038,111.5577c10.9163,2.2216,27.5015,3.3274,52.1328,0.1554l11.0803-10.935
	c5.8336-5.7514,5.9066-15.1406,0.1648-20.9828l-29.5314-29.9703c-5.7596-5.8608-15.1585-5.9244-21.0098-0.1554l-26.8622,26.496
	c-5.8516,5.7419-5.9246,15.1585-0.1638,20.9826L68.6038,111.5577z"/>
<path class="st2" d="M248.5341,133.381c-6.5825,1.0787-16.5299,1.3352-31.2128-1.1515l-6.3823-6.8026
	c-3.3459-3.5746-3.1635-9.2163,0.4204-12.5622l18.3772-17.2435c3.6027-3.3647,9.2163-3.1812,12.581,0.3933l15.4692,16.5029
	c3.3462,3.5745,3.1823,9.2161-0.4016,12.5622L248.5341,133.381z"/>
<path class="st2" d="M224.6717,86.5145c-10.9895,1.7929-27.6113,2.2311-52.0954-1.9107l-10.643-11.3462
	c-5.5948-5.988-5.3027-15.3962,0.6769-20.992l30.684-28.7813c5.9786-5.6136,15.3775-5.3028,20.9911,0.6769l25.8201,27.5381
	c5.6136,5.9797,5.3029,15.369-0.6769,20.9733L224.6717,86.5145z"/>
<path class="st2" d="M310.34,113.6876l4.8273-4.7541c5.8336-5.742,5.9066-15.1594,0.1469-20.992l-29.5314-29.9705
	c-5.7418-5.842-15.1594-5.9056-20.992-0.1554l-26.88,26.496c-1.6645,1.646-2.8162,3.5933-3.5473,5.6774
	C246.9257,95.7308,281.376,110.4783,310.34,113.6876z"/>
<path class="st2" d="M128.8733,137.3404l-2.597-2.6514c-5.7598-5.8429-5.6866-15.2324,0.1469-21.0014l26.88-26.4775
	c5.8514-5.7606,15.2502-5.696,21.0099,0.1554l29.5136,29.9611c0.2734,0.2744,0.4568,0.5757,0.6947,0.8595
	C186.8201,126.0851,160.763,134.8528,128.8733,137.3404z"/>
<path class="st1" d="M63.4657,126.6432c0,0,34.413,15.515,29.7318,39.3962c-4.6811,23.8814-28.5802,134.8747,11.7028,107.2456
	c0,0,9.8202-15.4514,4.2242-50.1217c-5.6312-34.6507-7.6797-74.386,23.7896-79.8077"/>
<path class="st3" d="M374.6503,167.9137c0,0,37.2122-2.8798,71.4424,20.5343"/>
<path class="st3" d="M475.569,215.9131c0,0-10.3492-13.7597-19.9126-20.6073"/>
<path class="st3" d="M376.6436,391.5378c0,0,43.8856-7.7342,68.1329-38.9937"/>
<path class="st3" d="M451.4507,343.4102c0,0,6.3083-12.992,11.9407-27.3921"/>
<path class="st3" d="M359.6567,324.329l2.3405,88.978c0,0,0.9325,36.9922-27.1544,41.6733"/>
<line class="st3" x1="358.7243" y1="312.1505" x2="358.7243" y2="274.6838"/>
<path class="st3" d="M358.7243,178.1261c-0.4757-1.3162,0-36.9191,0-36.9191s-22.0164,14.4367-55.2599,18.4689"/>
<path class="st3" d="M21.8103,319.8858l-2.2123,88.9684c0,0-0.8773,37.0015,27.2273,41.6369"/>
<line class="st3" x1="22.7249" y1="307.7167" x2="22.6697" y2="270.2488"/>
<path class="st3" d="M22.1586,174.2857c0.5112-1.2975,1.4624-36.8816,1.4624-36.8816s21.4311,15.296,54.4911,20.6353"/>
</svg>
