<?xml version="1.0" encoding="iso-8859-1"?>
<!-- Generator: Adobe Illustrator 23.1.1, SVG Export Plug-In . SVG Version: 6.00 Build 0)  -->
<svg version="1.1" id="OutlineColor" xmlns="http://www.w3.org/2000/svg" xmlns:xlink="http://www.w3.org/1999/xlink" x="0px"
	 y="0px" viewBox="0 0 64 64" style="enable-background:new 0 0 64 64;" xml:space="preserve">
<path style="fill:#8FBF26;" d="M25,16.22V16c0-3.866-3.134-7-7-7h0c-3.866,0-7,3.134-7,7v0.186c0,3.929-1.208,7.831-3.734,10.84
	c-2.368,2.822-3.643,6.589-3.167,10.659c0.745,6.372,5.921,11.517,12.297,12.226C24.846,50.85,32,44.26,32,36
	c0-3.237-1.101-6.213-2.948-8.581C26.536,24.192,25,20.312,25,16.22z"/>
<path style="fill:#F2F1DC;" d="M18,48c-0.458,0-0.923-0.026-1.384-0.077c-5.464-0.607-9.893-5.011-10.531-10.471
	c-0.391-3.344,0.573-6.59,2.714-9.14C11.508,25.083,13,20.776,13,16.186V16c0-2.757,2.243-5,5-5s5,2.243,5,5v0.22
	c0,4.378,1.547,8.676,4.475,12.43C29.127,30.768,30,33.31,30,36c0,3.205-1.248,6.219-3.515,8.485S21.206,48,18,48L18,48z"/>
<path style="fill:#8FBF26;" d="M18.025,51.001c-0.576,0-1.156-0.032-1.74-0.097c-6.838-0.76-12.381-6.271-13.18-13.104
	c-0.487-4.173,0.718-8.228,3.396-11.417C8.757,23.694,10,20.072,10,16.186V16c0-4.411,3.589-8,8-8s8,3.589,8,8v0.22
	c0,3.703,1.328,7.363,3.84,10.584C31.907,29.455,33,32.635,33,36c0,4.262-1.822,8.336-5,11.18
	C25.213,49.675,21.722,51.001,18.025,51.001z M18,10c-3.309,0-6,2.691-6,6v0.186c0,4.356-1.409,8.435-3.968,11.483
	c-2.319,2.764-3.363,6.279-2.94,9.899c0.692,5.918,5.492,10.69,11.414,11.348c3.757,0.419,7.368-0.728,10.16-3.227
	C29.421,43.225,31,39.693,31,36c0-2.915-0.946-5.67-2.737-7.966C25.475,24.458,24,20.373,24,16.22V16C24,12.691,21.309,10,18,10z"/>
<circle style="fill:#9C7039;" cx="18" cy="36" r="8"/>
<path style="fill:#F27272;" d="M43.779,3.904c-1.282,0.158-2.386,0.982-3.215,2.252c-0.682,1.045-2.126,1.224-3.043,0.376
	c-1.114-1.03-2.384-1.56-3.667-1.401c-3.289,0.406-5.406,5.179-4.728,10.66c0.677,5.481,3.893,9.595,7.181,9.189
	c1.282-0.158,2.386-0.982,3.215-2.252c0.682-1.045,2.126-1.224,3.043-0.376c1.114,1.03,2.384,1.56,3.667,1.401
	c3.289-0.406,5.406-5.179,4.728-10.66C50.283,7.611,47.068,3.498,43.779,3.904z"/>
<path style="fill:#F2F1DC;" d="M35.857,23.007c-1.809,0-4.203-3.064-4.746-7.461c-0.562-4.544,1.115-8.198,2.988-8.43
	c0.069-0.009,0.138-0.014,0.205-0.014c0.734,0,1.416,0.488,1.859,0.898c0.745,0.688,1.711,1.067,2.72,1.067
	c1.356,0,2.61-0.681,3.354-1.82c0.369-0.564,0.979-1.259,1.786-1.358c0.068-0.009,0.137-0.013,0.205-0.013
	c1.808,0,4.202,3.064,4.745,7.461c0.28,2.264,0.018,4.515-0.72,6.178c-0.588,1.326-1.415,2.147-2.268,2.252
	c-0.068,0.009-0.136,0.013-0.204,0.013c-0.735,0-1.417-0.487-1.859-0.896c-0.745-0.689-1.711-1.069-2.721-1.069
	c-1.356,0-2.611,0.681-3.355,1.819c-0.369,0.566-0.979,1.262-1.785,1.36C35.994,23.003,35.926,23.007,35.857,23.007z"/>
<path style="fill:#F27272;" d="M35.849,26.008c-3.671,0-6.996-4.278-7.715-10.094c-0.756-6.122,1.703-11.295,5.598-11.775
	c1.541-0.193,3.088,0.382,4.469,1.659c0.224,0.206,0.508,0.304,0.808,0.263c0.297-0.036,0.552-0.197,0.718-0.452
	c1.028-1.574,2.388-2.506,3.932-2.696c3.867-0.491,7.538,3.936,8.295,10.058c0.35,2.828,0.011,5.585-0.955,7.762
	c-1.041,2.348-2.689,3.772-4.642,4.014c-1.54,0.196-3.09-0.383-4.47-1.659c-0.222-0.207-0.501-0.298-0.807-0.264
	c-0.297,0.037-0.553,0.197-0.72,0.452c-1.027,1.574-2.386,2.507-3.93,2.697C36.235,25.996,36.042,26.008,35.849,26.008z
	 M34.305,6.104c-0.107,0-0.217,0.006-0.327,0.02c-2.689,0.332-4.457,4.703-3.859,9.546c0.599,4.84,3.372,8.658,6.066,8.318
	c1.188-0.146,2.016-1.063,2.5-1.807c0.487-0.745,1.271-1.235,2.15-1.344c0.877-0.103,1.757,0.177,2.409,0.78
	c0.65,0.603,1.668,1.29,2.866,1.144c1.228-0.152,2.313-1.16,3.059-2.84c0.821-1.851,1.104-4.231,0.799-6.705
	c-0.599-4.842-3.37-8.662-6.065-8.319h-0.001c-1.188,0.146-2.016,1.062-2.501,1.806c-0.486,0.745-1.269,1.235-2.147,1.344
	c-0.875,0.112-1.757-0.175-2.41-0.779C36.251,6.72,35.352,6.104,34.305,6.104z"/>
<path style="fill:#D98825;" d="M56.583,41.396c-4.101,6.555-13.114,14.207-16.86,11.864s-0.805-13.796,3.296-20.35
	s7.81-5.73,11.556-3.386C58.32,31.866,60.684,34.841,56.583,41.396z"/>
<path style="fill:#F2B544;" d="M61,39H3v0c0,12.15,9.85,22,22,22h14C51.15,61,61,51.15,61,39L61,39z"/>
<path style="fill:#402D1C;" d="M61,38h-1.699c1.344-4.378-0.789-6.944-3.255-8.696c0.517-0.5,1.152-0.863,1.87-1.029
	c1.038-0.237,2.112-0.059,3.02,0.509l1.061-1.695c-1.303-0.816-2.801-1.061-4.208-0.816l1.878-3.001l-1.695-1.061l-1.886,3.014
	c-0.408-1.427-1.297-2.647-2.566-3.441l-1.061,1.695c0.906,0.567,1.538,1.453,1.777,2.493c0.166,0.718,0.117,1.448-0.106,2.131
	c-1.522-0.839-3.37-1.545-5.364-1.213c-2.377,0.399-4.534,2.194-6.592,5.486c-0.526,0.838-1.035,1.749-1.511,2.713
	c-0.478,0.973-0.894,1.946-1.27,2.91h-6.54C32.94,37.337,33,36.67,33,36c0-3.366-1.094-6.546-3.16-9.193
	C27.328,23.574,26,19.913,26,16.22V16c0-4.411-3.589-8-8-8c-2.137,0-4.146,0.832-5.657,2.343C10.832,11.854,10,13.863,10,16v0.19
	c0,3.883-1.242,7.504-3.496,10.196c-2.682,3.191-3.889,7.244-3.398,11.405c0.008,0.066,0.02,0.14,0.029,0.208H3
	c-0.553,0-1,0.447-1,1c0,12.683,10.317,23,23,23h14c12.683,0,23-10.317,23-23C62,38.447,61.553,38,61,38z M49.096,28.863
	c1.388-0.23,2.91,0.232,4.944,1.504c3.009,1.883,4.589,3.849,3.155,7.633h-0.389l-2.026-1.268L53.987,38h-6.599l-4.513-2.826
	c0.321-0.604,0.65-1.19,0.992-1.734C45.605,30.659,47.315,29.162,49.096,28.863z M41.993,36.981L43.62,38h-2.076
	C41.686,37.661,41.838,37.322,41.993,36.981z M5.093,37.562c-0.426-3.612,0.619-7.124,2.943-9.891C10.593,24.619,12,20.541,12,16.19
	V16c0-1.603,0.624-3.109,1.757-4.243C14.891,10.624,16.397,10,18,10c3.309,0,6,2.691,6,6v0.22c0,4.143,1.474,8.228,4.262,11.815
	C30.053,30.33,31,33.084,31,36c0,0.671-0.069,1.339-0.171,2h-4.063C26.916,37.343,27,36.675,27,36c0-4.963-4.037-9-9-9s-9,4.037-9,9
	c0,0.675,0.084,1.343,0.234,2H5.166C5.143,37.853,5.11,37.713,5.093,37.562z M11.291,38C11.098,37.347,11,36.677,11,36
	c0-3.859,3.141-7,7-7s7,3.141,7,7c0,0.677-0.098,1.347-0.291,2H11.291z M39,60H25C13.756,60,4.547,51.117,4.023,40h55.953
	C59.453,51.117,50.244,60,39,60z"/>
<path style="fill:#402D1C;" d="M35.849,26.008c0.193,0,0.387-0.012,0.581-0.036c1.544-0.19,2.902-1.123,3.93-2.697
	c0.167-0.255,0.423-0.415,0.72-0.452c0.306-0.034,0.585,0.057,0.807,0.264c1.38,1.276,2.93,1.855,4.47,1.659
	c1.952-0.241,3.601-1.666,4.642-4.014c0.966-2.177,1.305-4.934,0.955-7.762c-0.757-6.122-4.428-10.549-8.295-10.058
	c-1.45,0.179-2.734,1.019-3.737,2.424c-0.363-2.707-2.852-4.628-5.564-4.298l0.244,1.984c1.625-0.197,3.099,0.941,3.333,2.549
	c-1.312-1.113-2.759-1.614-4.202-1.433c-3.895,0.48-6.354,5.653-5.598,11.775C28.853,21.729,32.178,26.008,35.849,26.008z
	 M33.978,6.123c0.11-0.014,0.22-0.02,0.327-0.02c1.047,0,1.946,0.616,2.538,1.163c0.653,0.604,1.535,0.892,2.41,0.779
	c0.879-0.108,1.661-0.599,2.147-1.344c0.485-0.743,1.313-1.659,2.501-1.806c0,0,0,0,0.001,0c2.695-0.343,5.467,3.478,6.065,8.319
	c0.306,2.474,0.022,4.854-0.799,6.705c-0.745,1.68-1.831,2.688-3.059,2.84c-1.198,0.146-2.216-0.541-2.866-1.144
	c-0.652-0.604-1.532-0.883-2.409-0.78c-0.88,0.108-1.663,0.599-2.15,1.344c-0.484,0.743-1.312,1.66-2.5,1.807
	c-2.694,0.34-5.468-3.479-6.066-8.318C29.521,10.826,31.288,6.455,33.978,6.123z"/>
<rect x="49.228" y="30.701" transform="matrix(0.5305 -0.8477 0.8477 0.5305 -4.1388 57.9285)" style="fill:#402D1C;" width="2" height="4"/>
<rect x="37.058" y="13.687" transform="matrix(0.9925 -0.1225 0.1225 0.9925 -1.5128 4.774)" style="fill:#402D1C;" width="1.999" height="2"/>
<rect x="41.028" y="13.197" transform="matrix(0.9925 -0.1225 0.1225 0.9925 -1.4229 5.2568)" style="fill:#402D1C;" width="1.999" height="2"/>
</svg>
